PathFileType	4	(X/Y/Z)	/Users/itak/Documents/Research/Walk-IL/dataset/trc/00389_00012.trc
DataRate	CameraRate	NumFrames	NumMarkers	Units	OrigDataRate	OrigDataStartFrame	OrigNumFrames
100.000000	100.000000	4	53	mm	100.000000	228	608
Frame#	Time	RPSI			LPSI			L3			STRN			T10			C7			CLAV			RBAK			LBAK			LSHO			LUPA			LAEL			LAOL			LWTS			LWPS			LFRA			LIFD			LHPS			LHTS			RSHO			RUPA			RAEL			RAOL			RWTS			RWPS			RFRA			RIFD			RHTS			RHPS			RBHD			LFHD			RFHD			LBHD			LHIP			RHIP			RASI			LASI			LKNE			LTHI			LANK			LTIP			LTOE			LMT1			LMT5			LHEE			RKNE			RANK			RTIP			RTOE			RMT1			RMT5			RHEE			RTHI			
		X1	Y1	Z1	X2	Y2	Z2	X3	Y3	Z3	X4	Y4	Z4	X5	Y5	Z5	X6	Y6	Z6	X7	Y7	Z7	X8	Y8	Z8	X9	Y9	Z9	X10	Y10	Z10	X11	Y11	Z11	X12	Y12	Z12	X13	Y13	Z13	X14	Y14	Z14	X15	Y15	Z15	X16	Y16	Z16	X17	Y17	Z17	X18	Y18	Z18	X19	Y19	Z19	X20	Y20	Z20	X21	Y21	Z21	X22	Y22	Z22	X23	Y23	Z23	X24	Y24	Z24	X25	Y25	Z25	X26	Y26	Z26	X27	Y27	Z27	X28	Y28	Z28	X29	Y29	Z29	X30	Y30	Z30	X31	Y31	Z31	X32	Y32	Z32	X33	Y33	Z33	X34	Y34	Z34	X35	Y35	Z35	X36	Y36	Z36	X37	Y37	Z37	X38	Y38	Z38	X39	Y39	Z39	X40	Y40	Z40	X41	Y41	Z41	X42	Y42	Z42	X43	Y43	Z43	X44	Y44	Z44	X45	Y45	Z45	X46	Y46	Z46	X47	Y47	Z47	X48	Y48	Z48	X49	Y49	Z49	X50	Y50	Z50	X51	Y51	Z51	X52	Y52	Z52	X53	Y53	Z53	

229	2.28	874.3772583007812	977.7980346679688	38.05687713623047	862.0680541992188	970.0275268554688	-94.1614990234375	869.4655151367188	1056.031616210938	-21.45828819274902	1114.944580078125	1213.847778320312	-27.44840240478516	867.8251342773438	1158.651733398438	-23.25079727172852	902.5984497070312	1408.321655273438	-30.25331497192383	1060.15576171875	1331.910278320312	-27.0134105682373	863.98583984375	1261.099975585938	39.01568984985352	886.4494018554688	1371.537841796875	-133.8695068359375	973.8082885742188	1387.204467773438	-185.3163146972656	957.9007568359375	1270.152587890625	-255.287109375	1001.276794433594	1075.549438476562	-273.9466857910156	934.0242919921875	1049.461181640625	-227.8905639648438	1105.941284179688	874.2885131835938	-199.3937835693359	1077.313720703125	853.0867309570312	-273.734375	1033.882446289062	973.715087890625	-276.4281005859375	1131.815795898438	698.1743774414062	-199.3796997070312	1100.646484375	771.5093994140625	-260.1846313476562	1141.814697265625	781.5841064453125	-211.6969299316406	966.1407470703125	1387.87353515625	128.3580780029297	958.26611328125	1321.548950195312	188.3076324462891	986.6317138671875	1059.66650390625	222.2908782958984	951.7538452148438	1049.238525390625	135.9043731689453	1123.154907226562	854.2362060546875	171.5345306396484	1090.801513671875	839.5255737304688	236.6595611572266	1019.171203613281	996.2162475585938	232.15771484375	1139.734375	682.4842529296875	173.1908416748047	1153.418701171875	752.386962890625	187.5645294189453	1101.8818359375	750.7340087890625	233.9031677246094	948.5228271484375	1599.031616210938	49.66987228393555	1087.892333984375	1598.525390625	-92.77015686035156	1081.078491210938	1607.506958007812	29.97446060180664	939.9807739257812	1586.19580078125	-110.9036560058594	946.3596801757812	966.8468627929688	-210.1600494384766	962.6309204101562	953.31494140625	148.2590026855469	1094.32958984375	965.9559936523438	89.62400054931641	1063.446899414062	968.7684936523438	-171.1459350585938	1071.693481445312	478.9633483886719	-192.1277160644531	1041.964477539062	616.89697265625	-204.7118072509766	933.3211059570312	44.58659744262695	-164.5839080810547	999.3460083007812	252.7283782958984	-191.9479217529297	1149.868896484375	36.34778213500977	-109.8535614013672	1071.094848632812	43.890380859375	-76.90803527832031	1059.879272460938	33.5432243347168	-179.1489562988281	897.7573852539062	48.37602996826172	-106.6739883422852	1026.337768554688	465.3756713867188	102.6164321899414	974.3683471679688	48.02997207641602	57.25592422485352	1037.223510742188	340.0519409179688	80.26120758056641	1152.608764648438	26.226318359375	-7.069118499755859	1074.420532226562	28.8522777557373	-39.30915832519531	1058.144653320312	40.3375358581543	58.59991073608398	898.4111328125	34.9761962890625	5.322938919067383	1048.709106445312	730.40234375	139.2472686767578	
230	2.29	871.6434936523438	977.7821655273438	39.10067749023438	858.8323364257812	969.98681640625	-93.12947845458984	866.7788696289062	1056.01953125	-20.20572853088379	1112.234130859375	1213.812255859375	-26.97152709960938	864.9114990234375	1158.64453125	-21.95604705810547	899.7789306640625	1408.343627929688	-28.8674144744873	1057.365844726562	1331.824951171875	-26.21277809143066	861.5962524414062	1261.047729492188	40.53657913208008	883.269775390625	1371.631958007812	-132.4479827880859	970.444091796875	1387.294555664062	-184.1881408691406	954.15625	1270.29541015625	-254.1746368408203	997.4197387695312	1075.694458007812	-272.9951477050781	930.25927734375	1049.600463867188	-226.7131958007812	1102.693237304688	874.7045288085938	-198.5877838134766	1073.992553710938	853.4287719726562	-272.8664245605469	1030.21484375	973.9047241210938	-275.5177917480469	1129.487182617188	698.7337036132812	-198.9867858886719	1097.726440429688	771.993896484375	-259.5294799804688	1139.05126953125	782.3178100585938	-211.1962127685547	963.8699340820312	1387.82177734375	129.3948974609375	956.457275390625	1321.526000976562	189.4761199951172	984.9783935546875	1059.70849609375	223.7329711914062	949.6145629882812	1049.18115234375	137.3217468261719	1121.542602539062	854.470703125	172.6456298828125	1089.38525390625	839.753173828125	237.8695526123047	1017.796875	996.317626953125	233.6361389160156	1138.353759765625	682.735107421875	174.3259429931641	1152.032958984375	752.66796875	188.6541137695312	1100.620239257812	750.9776611328125	235.1436767578125	945.9121704101562	1598.9453125	50.89649963378906	1084.870483398438	1598.581298828125	-92.01868438720703	1078.343383789062	1607.513427734375	30.7987060546875	936.8717041015625	1586.141723632812	-109.7041091918945	942.8135375976562	966.9899291992188	-209.3647918701172	960.2500610351562	953.1826171875	149.0160369873047	1091.729614257812	965.7389526367188	89.97535705566406	1059.982299804688	968.9071655273438	-170.621826171875	1070.482421875	479.5501098632812	-192.4778900146484	1039.981323242188	617.2409057617188	-204.7249908447266	932.2695922851562	44.42039108276367	-165.3661499023438	997.9342651367188	253.3153076171875	-192.6076202392578	1148.5830078125	38.63749313354492	-110.7831420898438	1070.02587890625	45.36225128173828	-77.54280090332031	1058.791748046875	33.92285919189453	-179.7984313964844	896.5980834960938	48.28606414794922	-107.397102355957	1024.856079101562	465.2782287597656	102.9719314575195	974.402587890625	47.93705749511719	57.20288848876953	1036.188842773438	340.0248413085938	80.51492309570312	1152.66455078125	26.18840789794922	-6.946590423583984	1074.471923828125	28.76221656799316	-39.38230895996094	1058.14599609375	40.32511138916016	58.52842330932617	898.3604736328125	34.85974502563477	5.255244731903076	1046.431518554688	730.5663452148438	140.3316192626953	
231	2.3	868.8657836914062	977.7161254882812	40.12276458740234	855.5275268554688	969.8576049804688	-92.12737274169922	864.0211791992188	1055.943603515625	-19.0117015838623	1109.391967773438	1213.758911132812	-26.54250717163086	861.9478759765625	1158.599731445312	-20.72528457641602	896.8027954101562	1408.328369140625	-27.56614303588867	1054.444580078125	1331.727783203125	-25.47514533996582	859.0546875	1260.942260742188	41.94326782226562	879.9698486328125	1371.680297851562	-131.1167144775391	966.9666137695312	1387.344360351562	-183.1332702636719	950.3169555664062	1270.38232421875	-253.1276092529297	993.4996948242188	1075.781372070312	-272.12109375	926.4246215820312	1049.679077148438	-225.5896911621094	1099.342651367188	875.0519409179688	-197.84326171875	1070.566772460938	853.7107543945312	-272.0702819824219	1026.45361328125	974.0303955078125	-274.6780090332031	1127.042358398438	699.25439453125	-198.6595153808594	1094.66943359375	772.4116821289062	-258.9474182128906	1136.1591796875	782.981201171875	-210.7618713378906	961.4244995117188	1387.72265625	130.3721923828125	954.4530639648438	1321.435546875	190.5655975341797	983.1802368164062	1059.709838867188	225.1122131347656	947.4021606445312	1049.023803710938	138.6707153320312	1119.844116210938	854.6861572265625	173.7962493896484	1087.863159179688	839.9729614257812	239.1074676513672	1016.320495605469	996.3849487304688	235.1030883789062	1136.924560546875	682.9710083007812	175.5618133544922	1150.5810546875	752.939697265625	189.8280487060547	1099.26904296875	751.2200927734375	236.4428405761719	943.1419677734375	1598.84228515625	52.10606384277344	1081.705932617188	1598.650268554688	-91.26706695556641	1075.439575195312	1607.502563476562	31.63249015808105	933.62353515625	1586.0888671875	-108.5271072387695	939.20263671875	967.051025390625	-208.6131134033203	957.8468017578125	953.0469360351562	149.7358856201172	1089.073974609375	965.5238647460938	90.24579620361328	1056.486450195312	969.0293579101562	-170.1978759765625	1068.92041015625	480.0820007324219	-192.7944793701172	1037.740478515625	617.5203857421875	-204.7096405029297	930.5325927734375	44.27907562255859	-166.1965789794922	995.9649658203125	253.8884124755859	-193.2819061279297	1146.550415039062	41.19061660766602	-111.6681060791016	1068.237670898438	46.93314361572266	-78.16992950439453	1057.018798828125	34.38932418823242	-180.4703521728516	894.7493896484375	48.14373779296875	-108.1892776489258	1023.197387695312	465.1960144042969	103.3335266113281	974.4326782226562	47.84777450561523	57.15839767456055	1035.001831054688	340.0191345214844	80.79020690917969	1152.719360351562	26.15900802612305	-6.84965991973877	1074.522216796875	28.68993186950684	-39.4276008605957	1058.142944335938	40.3117790222168	58.47179794311523	898.3538818359375	34.73224639892578	5.189754486083984	1044.131469726562	730.7268676757812	141.3788146972656	
232	2.31	866.0234375	977.6055908203125	41.11111068725586	852.1447143554688	969.6563110351562	-91.16356658935547	861.16259765625	1055.822875976562	-17.88968276977539	1106.411743164062	1213.70263671875	-26.16772651672363	858.9282836914062	1158.527221679688	-19.55608940124512	893.6668090820312	1408.2841796875	-26.35524940490723	1051.384155273438	1331.633544921875	-24.80544471740723	856.3422241210938	1260.792236328125	43.22959899902344	876.5405883789062	1371.690551757812	-129.8782958984375	963.3648071289062	1387.366943359375	-182.1567993164062	946.3846435546875	1270.424438476562	-252.1473388671875	989.5296630859375	1075.82568359375	-271.3228454589844	922.5352172851562	1049.70703125	-224.5350341796875	1095.893676757812	875.337158203125	-197.1774597167969	1067.027587890625	853.9353637695312	-271.35888671875	1022.605895996094	974.1060791015625	-273.9156494140625	1124.43994140625	699.7106323242188	-198.3792266845703	1091.459106445312	772.7626342773438	-258.4432678222656	1133.1201171875	783.5538330078125	-210.3977508544922	958.7902221679688	1387.590576171875	131.2843170166016	952.228759765625	1321.29052734375	191.5691375732422	981.2244873046875	1059.683349609375	226.4113311767578	945.1351928710938	1048.7841796875	139.9473266601562	1118.05029296875	854.8955688476562	174.9824371337891	1086.223388671875	840.19970703125	240.3687744140625	1014.696044921875	996.4306030273438	236.5284729003906	1135.45068359375	683.2083129882812	176.9090118408203	1149.058349609375	753.2234497070312	191.0945892333984	1097.828979492188	751.4788818359375	237.8048553466797	940.2020263671875	1598.723510742188	53.28740692138672	1078.396484375	1598.737060546875	-90.51282501220703	1072.365966796875	1607.47412109375	32.47393417358398	930.2369384765625	1586.049438476562	-107.3772888183594	935.5234375	967.0491943359375	-207.90966796875	955.4149780273438	952.9124145507812	150.4182281494141	1086.35546875	965.328857421875	90.44169616699219	1052.936157226562	969.1217651367188	-169.8548431396484	1067.04150390625	480.5569458007812	-193.0523376464844	1035.255859375	617.7426147460938	-204.64990234375	927.9329833984375	44.26666641235352	-167.023193359375	993.3944702148438	254.4822540283203	-193.926025390625	1143.620727539062	43.87431335449219	-112.4936141967773	1065.566040039062	48.52801895141602	-78.75636291503906	1054.392333984375	34.95476913452148	-181.1339874267578	892.0579833984375	48.07144165039062	-108.9967498779297	1021.371154785156	465.1363525390625	103.7103805541992	974.4523315429688	47.76553344726562	57.12668609619141	1033.675659179688	340.0429992675781	81.09661865234375	1152.771606445312	26.13565635681152	-6.779040813446045	1074.567260742188	28.64078521728516	-39.43954849243164	1058.1357421875	40.29673004150391	58.43266296386719	898.4099731445312	34.59806442260742	5.132669925689697	1041.802734375	730.8885498046875	142.3885040283203	
